<svg xmlns="http://www.w3.org/2000/svg" width="90" height="90" viewBox="0 0 90 90">
  <g id="グループ_244" data-name="グループ 244" transform="translate(-317.292 -33.685)">
    <circle id="楕円形_68" data-name="楕円形 68" cx="45" cy="45" r="45" transform="translate(317.292 33.685)" fill="#3b2121"/>
    <g id="グループ_198" data-name="グループ 198" transform="translate(329.923 54.591)">
      <path id="パス_42" data-name="パス 42" d="M-2497.959,270.115c-4.146-2.681-8.913-.179-10.51.82a52.644,52.644,0,0,0-37.719,0c-1.6-1-6.367-3.5-10.507-.819-2.466,1.6-3.629,5.852-2.766,10.122,1.221,6.039,5.955,10.374,12.677,11.645q9.747,6.079,19.52,6.082c6.5,0,12.982-2.03,19.4-6.083,6.721-1.272,11.452-5.606,12.674-11.644C-2494.33,275.968-2495.493,271.711-2497.959,270.115Zm-47.192,10.355c3.859-.871,19.731-3.958,35.648-.015v3.93c-16,5.98-32.039,1.21-35.648-.019Zm35.648-7.386v4.926c-15.73-3.747-30.906-1.025-35.648.019V273.08A50.3,50.3,0,0,1-2509.5,273.084Zm-47.628,6.682c-.732-3.619.3-6.735,1.726-7.655,2.907-1.879,6.574,0,7.877.792v16.387C-2554.8,287.431-2556.663,282.082-2557.131,279.766Zm11.98,10.335V286.88a61.4,61.4,0,0,0,18.465,2.874,51.583,51.583,0,0,0,17.183-2.843v3.195C-2521.411,297.483-2533.085,297.482-2545.151,290.1Zm47.628-10.335c-.468,2.315-2.332,7.665-9.6,9.523V272.9c1.3-.8,4.953-2.68,7.877-.788C-2497.826,273.032-2496.791,276.147-2497.523,279.766Z" transform="translate(2559.744 -255.169)" fill="#fcfff0"/>
      <path id="パス_43" data-name="パス 43" d="M-2257.655,500.107h-2.778v-2.779a1.189,1.189,0,0,0-1.188-1.188,1.189,1.189,0,0,0-1.189,1.188v2.779h-2.778a1.188,1.188,0,0,0-1.189,1.188,1.188,1.188,0,0,0,1.189,1.188h2.778v2.778a1.189,1.189,0,0,0,1.189,1.188,1.188,1.188,0,0,0,1.188-1.188v-2.778h2.778a1.188,1.188,0,0,0,1.188-1.188A1.188,1.188,0,0,0-2257.655,500.107Z" transform="translate(2306.271 -453.037)" fill="#fcfff0"/>
      <path id="パス_44" data-name="パス 44" d="M-2438.011,182.751h2.779v2.779a1.188,1.188,0,0,0,1.188,1.188,1.188,1.188,0,0,0,1.188-1.188v-2.779h2.779a1.188,1.188,0,0,0,1.188-1.188,1.188,1.188,0,0,0-1.187-1.188h-2.779V177.6a1.188,1.188,0,0,0-1.188-1.188,1.188,1.188,0,0,0-1.188,1.188v2.778h-2.779a1.188,1.188,0,0,0-1.189,1.188A1.188,1.188,0,0,0-2438.011,182.751Z" transform="translate(2455.45 -176.408)" fill="#fcfff0"/>
    </g>
  </g>
</svg>
