<svg xmlns="http://www.w3.org/2000/svg" width="20" height="16.254" viewBox="0 0 20 16.254">
  <g id="グループ_89" data-name="グループ 89" transform="translate(-200.367 -210.171)">
    <path id="パス_16" data-name="パス 16" d="M81.29,114.665A11.6,11.6,0,0,0,92.965,102.99c0-.178,0-.355-.012-.53A8.349,8.349,0,0,0,95,100.335a8.19,8.19,0,0,1-2.356.646,4.117,4.117,0,0,0,1.8-2.27,8.223,8.223,0,0,1-2.605,1,4.107,4.107,0,0,0-6.993,3.742,11.65,11.65,0,0,1-8.458-4.287,4.107,4.107,0,0,0,1.27,5.478,4.073,4.073,0,0,1-1.858-.513c0,.017,0,.034,0,.052a4.105,4.105,0,0,0,3.292,4.023,4.1,4.1,0,0,1-1.853.07,4.108,4.108,0,0,0,3.833,2.85,8.234,8.234,0,0,1-5.1,1.756,8.344,8.344,0,0,1-.979-.057,11.617,11.617,0,0,0,6.29,1.843" transform="translate(125.367 111.76)" fill="#3b2121"/>
  </g>
</svg>
