<svg xmlns="http://www.w3.org/2000/svg" width="56" height="56" viewBox="0 0 56 56">
  <g id="グループ_253" data-name="グループ 253" transform="translate(-1605 -4774)">
    <rect id="長方形_129" data-name="長方形 129" width="56" height="56" transform="translate(1605 4774)" fill="none"/>
    <g id="グループ_252" data-name="グループ 252" transform="translate(1615.088 4775.956)">
      <path id="パス_69" data-name="パス 69" d="M-582.185,1337.235a6.478,6.478,0,0,0-6.075,4.232,15.778,15.778,0,0,0-5.223-.883,15.777,15.777,0,0,0-5.223.883,6.478,6.478,0,0,0-6.076-4.232,6.475,6.475,0,0,0-6.475,6.475,6.477,6.477,0,0,0,3.97,5.972,12.078,12.078,0,0,0-.716,4.094,12.509,12.509,0,0,0,3.817,8.913q.253.25.52.489t.563.476a13.615,13.615,0,0,0-4.755,4.823c-1.108,1.78-2.809,5.281-2.027,9.054a6.641,6.641,0,0,1,3.131-2.662c.063-.025.125-.052.188-.076.17-.063.342-.116.515-.164a6.477,6.477,0,0,1,.707-.155,18.948,18.948,0,0,1,4.509-9.323q.314.168.637.321t.666.3a17.327,17.327,0,0,0-4.387,8.634,7.93,7.93,0,0,1,6.781,5.311,8.263,8.263,0,0,1-.177,6.316,14.841,14.841,0,0,0,3.832.493,14.839,14.839,0,0,0,3.831-.493,8.263,8.263,0,0,1-.177-6.316,7.93,7.93,0,0,1,6.778-5.311,17.356,17.356,0,0,0-4.384-8.635q.338-.141.666-.3t.637-.321a18.924,18.924,0,0,1,4.507,9.323,6.485,6.485,0,0,1,.709.155c.172.048.344.1.515.164.064.024.125.051.188.076a6.64,6.64,0,0,1,3.131,2.662c.783-3.773-.919-7.275-2.027-9.054a13.617,13.617,0,0,0-4.755-4.823q.288-.232.563-.476t.521-.489a12.51,12.51,0,0,0,3.817-8.913,12.076,12.076,0,0,0-.717-4.094,6.477,6.477,0,0,0,3.97-5.972A6.475,6.475,0,0,0-582.185,1337.235Zm-5.981,8.957a1.754,1.754,0,0,1,.256-.021,1.756,1.756,0,0,1,1.756,1.756,1.745,1.745,0,0,1-.174.758,1.754,1.754,0,0,1-1.582,1,1.756,1.756,0,0,1-1.756-1.756A1.755,1.755,0,0,1-588.166,1346.192Zm-10.89-.021a1.755,1.755,0,0,1,.256.021,1.755,1.755,0,0,1,1.5,1.735,1.756,1.756,0,0,1-1.756,1.756,1.754,1.754,0,0,1-1.582-1,1.745,1.745,0,0,1-.174-.758A1.756,1.756,0,0,1-599.055,1346.171Zm-2.954-3.07c-.2.135-.405.274-.6.419a2.152,2.152,0,0,0-2.113-1.761,2.152,2.152,0,0,0-2.15,2.15,2.136,2.136,0,0,0,1.663,2.093q-.23.286-.442.584t-.393.581a3.494,3.494,0,0,1-2.194-3.257,3.52,3.52,0,0,1,3.516-3.516,3.52,3.52,0,0,1,3.308,2.337Q-601.718,1342.909-602.009,1343.1Zm14.04,18.64a7,7,0,0,1-.572.46,7.449,7.449,0,0,1-.643.417,8.589,8.589,0,0,1-4.3,1.119,8.59,8.59,0,0,1-4.3-1.119,7.506,7.506,0,0,1-.643-.417,7.025,7.025,0,0,1-.572-.46,5.611,5.611,0,0,1-1.979-4.18c0-3.41,3.354-6.175,7.492-6.175s7.492,2.765,7.492,6.175A5.61,5.61,0,0,1-587.97,1361.74Zm7.051-14.574q-.189-.295-.393-.581t-.443-.584a2.136,2.136,0,0,0,1.663-2.093,2.152,2.152,0,0,0-2.15-2.15,2.152,2.152,0,0,0-2.113,1.761c-.2-.145-.4-.284-.6-.419s-.392-.252-.594-.372a3.519,3.519,0,0,1,3.308-2.337,3.52,3.52,0,0,1,3.516,3.516A3.494,3.494,0,0,1-580.919,1347.166Z" transform="translate(611.256 -1337.235)" fill="#a19595"/>
      <path id="パス_70" data-name="パス 70" d="M-599.755,1540.764a5.407,5.407,0,0,0,4.451.358,5.189,5.189,0,0,0,2.166-1.532,5.646,5.646,0,0,0,.421-.568,5.953,5.953,0,0,0,.343-.6,6.882,6.882,0,0,0,.205-5.419,6.53,6.53,0,0,0-5.744-4.428c-.046,0-.092-.006-.137-.006a5.232,5.232,0,0,0-.561.034,5.14,5.14,0,0,0-.571.1c-.047.011-.094.02-.141.032a5.07,5.07,0,0,0-.517.158l-.024.009a5.144,5.144,0,0,0-.675.313,5.553,5.553,0,0,0-2.5,3.023,6.453,6.453,0,0,0-.258.932,6.741,6.741,0,0,0-.117.907,7.185,7.185,0,0,0,.442,2.935A6.93,6.93,0,0,0-599.755,1540.764Z" transform="translate(605.006 -1490.047)" fill="#a19595"/>
      <path id="パス_71" data-name="パス 71" d="M-499.3,1539.59a5.189,5.189,0,0,0,2.166,1.532,5.41,5.41,0,0,0,4.451-.358,6.93,6.93,0,0,0,3.22-3.756,7.19,7.19,0,0,0,.443-2.935,6.8,6.8,0,0,0-.117-.907,6.508,6.508,0,0,0-.258-.932,5.553,5.553,0,0,0-2.5-3.023,5.14,5.14,0,0,0-.675-.313l-.023-.009a5.128,5.128,0,0,0-.517-.158c-.047-.012-.094-.021-.141-.032a5.139,5.139,0,0,0-.572-.1,5.228,5.228,0,0,0-.56-.034c-.047,0-.093,0-.14.006A6.531,6.531,0,0,0-500.27,1533a6.881,6.881,0,0,0,.205,5.419,5.871,5.871,0,0,0,.343.6A5.591,5.591,0,0,0-499.3,1539.59Z" transform="translate(522.979 -1490.047)" fill="#a19595"/>
      <path id="パス_72" data-name="パス 72" d="M-532.074,1418.942a6.97,6.97,0,0,0-2.157-.263,6.972,6.972,0,0,0-2.157.263,1.187,1.187,0,0,0-.637.8c-.3,1.158,1.092,2.589,1.84,2.964l.018.008.059.027a2.14,2.14,0,0,0,.878.189,2.112,2.112,0,0,0,.876-.19.5.5,0,0,0,.06-.026l.018-.008c.748-.375,2.143-1.806,1.84-2.964A1.188,1.188,0,0,0-532.074,1418.942Z" transform="translate(552.004 -1402.282)" fill="#a19595"/>
    </g>
  </g>
</svg>
