<svg xmlns="http://www.w3.org/2000/svg" width="56" height="56" viewBox="0 0 56 56">
  <g id="グループ_256" data-name="グループ 256" transform="translate(-1165 -4774)">
    <rect id="長方形_132" data-name="長方形 132" width="56" height="56" transform="translate(1165 4774)" fill="none"/>
    <g id="グループ_251" data-name="グループ 251" transform="translate(1170.537 4784.117)">
      <path id="パス_76" data-name="パス 76" d="M156.58,187.641h-3.269l-.345-3.414-.008-.064a3.321,3.321,0,0,0-3.234-2.814h-9.3a3.321,3.321,0,0,0-3.234,2.814l-.353,3.477h-4.067v-2.924H121.441v2.924h-2.924A3.522,3.522,0,0,0,115,191.159v21.272a3.522,3.522,0,0,0,3.518,3.518H156.58a3.522,3.522,0,0,0,3.518-3.518V191.159A3.522,3.522,0,0,0,156.58,187.641Zm-19.031,25.275a7.617,7.617,0,1,1,7.617-7.617A7.617,7.617,0,0,1,137.549,212.916Zm19.168-18.285H118.381v-3.472a.142.142,0,0,1,.137-.137h6.3V188.1h4.568v2.924h10.5l.636-6.291h9.089l.636,6.291h6.325a.142.142,0,0,1,.137.137Z" transform="translate(-115 -181.35)" fill="#a19595"/>
      <g id="グループ_247" data-name="グループ 247" transform="translate(17.047 18.447)">
        <circle id="楕円形_78" data-name="楕円形 78" cx="4.785" cy="4.785" r="4.785" transform="matrix(0.163, -0.987, 0.987, 0.163, 0, 9.441)" fill="#a19595"/>
      </g>
    </g>
  </g>
</svg>
