<svg xmlns="http://www.w3.org/2000/svg" width="89" height="90" viewBox="0 0 89 90">
  <g id="グループ_246" data-name="グループ 246" transform="translate(-567.292 -33.685)">
    <path id="パス_67" data-name="パス 67" d="M44.5,0C69.077,0,89,20.147,89,45S69.077,90,44.5,90,0,69.853,0,45,19.923,0,44.5,0Z" transform="translate(567.292 33.685)" fill="#3b2121"/>
    <g id="グループ_200" data-name="グループ 200" transform="translate(583.747 51.618)">
      <path id="パス_47" data-name="パス 47" d="M-3244.384,156.32l-4.778-4.574v-3.952a2.192,2.192,0,0,0-2.19-2.193h-.492v-4.2h1.291a2.18,2.18,0,0,0,1.712-.823,2.179,2.179,0,0,0,.423-1.851l-.6-2.644a2.183,2.183,0,0,0-2.138-1.708h-11.668a2.183,2.183,0,0,0-2.139,1.708l-.058.251h-2.4a2.188,2.188,0,0,0-1.809.955l-2.04,2.985a1.1,1.1,0,0,0,.287,1.523,1.087,1.087,0,0,0,.617.191,1.1,1.1,0,0,0,.906-.478l2.039-2.985h1.9l-.044.2a2.183,2.183,0,0,0,.423,1.855,2.185,2.185,0,0,0,1.712.823h1.291v4.2h-.492a2.195,2.195,0,0,0-2.189,2.193v3.952l-.27.26a21.967,21.967,0,0,0-3.733-5.462,2.075,2.075,0,0,0-3.023,0c-1.9,2.162-4.16,5.185-4.16,7.3a5.682,5.682,0,0,0,5.393,5.667v5.342c-3.167-2.514-7.177-4.044-11.3-1.974h-11.607a1.092,1.092,0,0,0-1.093,1.093,1.093,1.093,0,0,0,1.093,1.1h12.15l.242-.13c4.031-2.166,7.884.27,10.517,2.866a24.74,24.74,0,0,1,2.193,2.494c.673.878,1.1,1.547,1.216,1.732a4.581,4.581,0,0,1-.523,3.973l-.693-.5-2.193-1.6-3.815-2.78a1.093,1.093,0,0,0-1.53.239,1.093,1.093,0,0,0,.239,1.53l5.107,3.72,1.94,1.414a2.967,2.967,0,0,0,.253.167,3.272,3.272,0,0,0,1.684.465h7.774a3.5,3.5,0,0,1,2.7,1.281c.027.034.055.065.078.1l.707,1.226a.381.381,0,0,1,0,.4.384.384,0,0,1-.342.2h-13.731a.458.458,0,0,1-.249-.082l-.813-.417-15.374-7.873h-7.535a1.1,1.1,0,0,0-1.093,1.1,1.1,1.1,0,0,0,1.093,1.1h7.005l15.665,8.02c.079.044.157.085.239.123v1.95a3.29,3.29,0,0,0,3.289,3.286h20.659a3.291,3.291,0,0,0,3.29-3.286V158.694A3.3,3.3,0,0,0-3244.384,156.32Zm-19.039-17.116.6-2.64h11.671l.6,2.64h-12.874Zm3.48,2.193h5.909v4.2h-5.909Zm-2.189,6.4h10.78v3.146h-11.272v-3.146Zm-11.675,6.046c0-1.028,1.36-3.252,3.481-5.694,2.029,2.34,3.365,4.478,3.474,5.557,0,.048.007.092.007.137a3.486,3.486,0,0,1-3.457,3.481h-.024A3.484,3.484,0,0,1-3273.807,153.84Zm5.394,13.024v-3.788h22.852V177.74h-9.806a5.687,5.687,0,0,0-3.587-1.281h-6.534a6.336,6.336,0,0,0,.26-5.4l-.055-.109A23.979,23.979,0,0,0-3268.413,166.864Zm22.852,18.9a1.1,1.1,0,0,1-1.1,1.1h-20.659a1.1,1.1,0,0,1-1.1-1.1v-1.725h12.6a2.563,2.563,0,0,0,2.241-1.291,2.558,2.558,0,0,0,0-2.586l-.132-.232h8.142Zm-22.852-24.881v-1.708a5.683,5.683,0,0,0,3.693-4.485l1.585-1.517h12.3l4.936,4.724a1.107,1.107,0,0,1,.338.792v2.193Z" transform="translate(3294.609 -134.37)" fill="#fcfff0"/>
      <path id="パス_48" data-name="パス 48" d="M-3014.41,405.256h.79v.789a2.192,2.192,0,0,0,2.192,2.189h1.592a2.192,2.192,0,0,0,2.193-2.189v-.789h.789a2.192,2.192,0,0,0,2.19-2.189v-1.6a2.193,2.193,0,0,0-2.19-2.193h-.789v-.789a2.194,2.194,0,0,0-2.193-2.189h-1.592a2.194,2.194,0,0,0-2.192,2.189v.789h-.79a2.195,2.195,0,0,0-2.189,2.193v1.6A2.194,2.194,0,0,0-3014.41,405.256Zm0-3.785h2.982V398.49h1.592v2.982h2.982v1.6h-2.982v2.979h-1.592v-2.979h-2.982Z" transform="translate(3048.254 -366.477)" fill="#fcfff0"/>
      <path id="パス_49" data-name="パス 49" d="M-3279.291,257.9h2.563v2.562a1.1,1.1,0,0,0,1.095,1.1,1.1,1.1,0,0,0,1.1-1.1V257.9h2.561a1.1,1.1,0,0,0,1.1-1.1,1.1,1.1,0,0,0-1.1-1.1h-2.561v-2.562a1.1,1.1,0,0,0-1.1-1.1,1.1,1.1,0,0,0-1.095,1.1v2.562h-2.562a1.1,1.1,0,0,0-1.1,1.1A1.1,1.1,0,0,0-3279.291,257.9Z" transform="translate(3282.005 -238.651)" fill="#fcfff0"/>
      <path id="パス_50" data-name="パス 50" d="M-3209.792,157.6h2.562v2.562a1.1,1.1,0,0,0,1.1,1.1,1.1,1.1,0,0,0,1.1-1.1V157.6h2.562a1.1,1.1,0,0,0,1.1-1.1,1.1,1.1,0,0,0-1.1-1.1h-2.562v-2.562a1.1,1.1,0,0,0-1.1-1.1,1.1,1.1,0,0,0-1.1,1.1v2.562h-2.562a1.1,1.1,0,0,0-1.1,1.1A1.1,1.1,0,0,0-3209.792,157.6Z" transform="translate(3220.42 -149.776)" fill="#fcfff0"/>
    </g>
  </g>
</svg>
