<svg xmlns="http://www.w3.org/2000/svg" width="56" height="56" viewBox="0 0 56 56">
  <g id="グループ_255" data-name="グループ 255" transform="translate(-1313 -4774)">
    <rect id="長方形_131" data-name="長方形 131" width="56" height="56" transform="translate(1313 4774)" fill="none"/>
    <g id="グループ_250" data-name="グループ 250" transform="translate(1316.744 4782.001)">
      <path id="パス_73" data-name="パス 73" d="M463.9,144.918V142.46a.964.964,0,0,0-.962-.962H451.166a1.255,1.255,0,0,0-1.066.709l-.839,2.71Z" transform="translate(-421.307 -141.498)" fill="#a19595"/>
      <path id="パス_74" data-name="パス 74" d="M195.738,181.469a6.5,6.5,0,0,1,3.217-1.491l.045-.006,14.957-1.193a7.612,7.612,0,0,1,.863-.05,4.951,4.951,0,0,1,5.29,4.38,5.057,5.057,0,0,1-.043,1.53l9.3-6.378a7.494,7.494,0,0,1,1.7-.956v-12.04a1.386,1.386,0,0,0-1.148-1.365l-19.22.006-1.727-3.217a1.255,1.255,0,0,0-1.066-.709H195.5a.964.964,0,0,0-.962.962v21.471Z" transform="translate(-187.885 -158.434)" fill="#a19595"/>
      <path id="パス_75" data-name="パス 75" d="M162.117,390.506c-1.117-1.5-2.818-1.213-4.313-.1l-13.644,9.352-12.109-.067.1-1.238,9.7-1.521c1.853-.224,3.35-1.4,3.126-3.251s-3.682-2.347-3.682-2.347l-14.954,1.193a4.363,4.363,0,0,0-2.1,1.031L115,400.822v11.153l6.309-2.695,12.054.779,10.443-2.61,17.237-13.124C162.538,393.209,163.234,392,162.117,390.506Z" transform="translate(-115 -368.74)" fill="#a19595"/>
    </g>
  </g>
</svg>
