<svg xmlns="http://www.w3.org/2000/svg" width="90" height="90" viewBox="0 0 90 90">
  <g id="グループ_245" data-name="グループ 245" transform="translate(-448.292 -33.685)">
    <circle id="楕円形_67" data-name="楕円形 67" cx="45" cy="45" r="45" transform="translate(448.292 33.685)" fill="#3b2121"/>
    <path id="パス_45" data-name="パス 45" d="M-2282.41,1690.734l.963-2.343,2.278-.9a2.326,2.326,0,0,0,1.482-2.18,2.329,2.329,0,0,0-1.482-2.179l-2.278-.9-.963-2.343a2.331,2.331,0,0,0-2.179-1.482,2.334,2.334,0,0,0-2.179,1.482l-.864,2.111-.1.233-.5.2v-.29a3.351,3.351,0,0,0-3.31-3.3,3.348,3.348,0,0,0-3.307,3.3v0a3.476,3.476,0,0,0-1.077-.173,3.215,3.215,0,0,0-3.308,3.106v1.148h0a3.709,3.709,0,0,0-1.076-.157,3.112,3.112,0,0,0-3.31,2.856v19.351a3.4,3.4,0,0,0,.612,1.947l1.486,2.142a2.333,2.333,0,0,0-1.308,2.1,2.333,2.333,0,0,0,1.486,2.179l2.111.868v7.081a1.115,1.115,0,0,0,1.117,1.117,1.114,1.114,0,0,0,1.114-1.117V1721.1a2.3,2.3,0,0,0,1.076.263h0a2.333,2.333,0,0,0,2.179-1.486l.96-2.34,2.281-.9a2.334,2.334,0,0,0,1.482-2.179,2.331,2.331,0,0,0-1.482-2.179l-2.281-.9-.062-.065-.9-2.278a2.33,2.33,0,0,0-2.179-1.483h0a2.326,2.326,0,0,0-2.176,1.483l-.963,2.343-.328.13-1.783-2.569a1.183,1.183,0,0,1-.211-.673v-19.351c0-.29.47-.625,1.079-.625s1.076.335,1.076.625v10.193a1.115,1.115,0,0,0,1.117,1.117,1.1,1.1,0,0,0,.831-.38,1.1,1.1,0,0,0,.283-.735v-14.04a.993.993,0,0,1,1.078-.875.993.993,0,0,1,1.077.875v14.04a1.105,1.105,0,0,0,.145.539,1.107,1.107,0,0,0,.969.577,1.111,1.111,0,0,0,1.054-.762,1.107,1.107,0,0,0,.063-.354v-14.04h0v-2.851a1.118,1.118,0,0,1,1.076-1.155,1.122,1.122,0,0,1,1.08,1.155v1.144a2.336,2.336,0,0,0-1.032,1.943,2.332,2.332,0,0,0,1.032,1.944v11.86a1.114,1.114,0,0,0,1.113,1.117,1.115,1.115,0,0,0,1.117-1.117v-10.893l.564.232.9,2.279a2.288,2.288,0,0,0,.69.95v7.685a1.151,1.151,0,0,0,.082.42v0q-.052.682-.072,1.438c-1.811.791-4.224,3.073-4.224,7.894a1.115,1.115,0,0,0,1.115,1.116,1.116,1.116,0,0,0,1.115-1.116c0-5.2,3.191-5.963,3.313-5.99l.9-.177v-.918c0-6.467,1.858-7.976,2.731-8.327v13.426a1.18,1.18,0,0,1-.2.661l-4.179,6.222a3.4,3.4,0,0,0-.581,1.9v8.667a1.116,1.116,0,0,0,1.115,1.116,1.116,1.116,0,0,0,1.115-1.116v-8.667a1.183,1.183,0,0,1,.2-.661l4.18-6.221a3.406,3.406,0,0,0,.58-1.905V1693.31a1.928,1.928,0,0,0-.663-1.455,1.915,1.915,0,0,0-1.526-.451,4.389,4.389,0,0,0-2.771,1.651v-.96A2.3,2.3,0,0,0-2282.41,1690.734Zm-15.836,22.725a1.571,1.571,0,0,0,.153-.072,2.321,2.321,0,0,0,1.165-1.247l.9-2.282a.1.1,0,0,1,.106-.068.093.093,0,0,1,.1.068l.9,2.282a2.348,2.348,0,0,0,1.319,1.318l2.281.9a.1.1,0,0,1,.068.106.091.091,0,0,1-.068.1l-2.281.9a2.354,2.354,0,0,0-1.319,1.322l-.9,2.278a.1.1,0,0,1-.1.072.1.1,0,0,1-.106-.072l-.9-2.278c-.024-.058-.047-.113-.075-.168a2.348,2.348,0,0,0-1.243-1.155l-1.544-.608-.738-.291a.093.093,0,0,1-.068-.1.1.1,0,0,1,.068-.106l.308-.119Zm13.762-23.541c-.024.054-.184.054-.208,0l-.9-2.278a2.268,2.268,0,0,0-.488-.755,2.3,2.3,0,0,0-.833-.564l-1.319-.519-.96-.379a.1.1,0,0,1-.072-.106.1.1,0,0,1,.072-.1l.96-.379v.246a.713.713,0,0,1,.051-.266l1.268-.5a1.03,1.03,0,0,0,.119-.058,2.33,2.33,0,0,0,1.2-1.264l.209-.533.69-1.745a.1.1,0,0,1,.1-.072.1.1,0,0,1,.106.072l.9,2.278a2.355,2.355,0,0,0,1.319,1.322l2.282.9a.093.093,0,0,1,.068.1.1.1,0,0,1-.068.106l-2.282.9a2.338,2.338,0,0,0-1.319,1.318l-.26.659Z" transform="translate(2798.567 -1622.255)" fill="#fcfff0"/>
    <path id="パス_46" data-name="パス 46" d="M-2537.142,1695.662v-18.913a3.109,3.109,0,0,0-3.307-2.856,3.721,3.721,0,0,0-1.078.157V1672.9a3.215,3.215,0,0,0-3.307-3.106,3.479,3.479,0,0,0-1.076.172v0a3.351,3.351,0,0,0-3.31-3.3,3.309,3.309,0,0,0-3.016,1.995l-.42-.164-.96-2.343a2.329,2.329,0,0,0-2.179-1.482,2.326,2.326,0,0,0-2.179,1.482l-.963,2.343-2.279.9a2.329,2.329,0,0,0-1.482,2.179,2.326,2.326,0,0,0,1.482,2.179l2.343.963.9,2.278a2.325,2.325,0,0,0,1.062,1.2v2.683a4.393,4.393,0,0,0-2.773-1.653,1.911,1.911,0,0,0-1.526.452,1.926,1.926,0,0,0-.663,1.455v13.828a3.4,3.4,0,0,0,.58,1.9l4.18,6.221a1.189,1.189,0,0,1,.2.662v8.667a1.115,1.115,0,0,0,1.115,1.115,1.115,1.115,0,0,0,1.116-1.115v-8.667a3.414,3.414,0,0,0-.58-1.9l-4.181-6.222a1.177,1.177,0,0,1-.2-.66v-13.427c.873.352,2.731,1.862,2.731,8.328v.918l.9.176c.033.007,3.314.71,3.314,5.991a1.115,1.115,0,0,0,1.116,1.115,1.115,1.115,0,0,0,1.115-1.115c0-4.822-2.413-7.1-4.225-7.894-.012-.507-.037-.987-.072-1.443a1.145,1.145,0,0,0,.081-.418v-9a2.33,2.33,0,0,0,1.065-1.2l.96-2.343.13-.051v12.341a1.114,1.114,0,0,0,1.114,1.117,1.115,1.115,0,0,0,1.117-1.117v-13.223a2.329,2.329,0,0,0,1.4-2.145,2.329,2.329,0,0,0-1.271-2.08,1.069,1.069,0,0,1,.943-.6,1.122,1.122,0,0,1,1.08,1.155v2.827c0,.009,0,.017,0,.025v14.04a1.11,1.11,0,0,0,.435.878,1.105,1.105,0,0,0,.68.238,1.115,1.115,0,0,0,1.117-1.117v-14.047a1,1,0,0,1,1.076-.868.993.993,0,0,1,1.077.875v3.819c0,.009,0,.018,0,.027v10.193a1.117,1.117,0,0,0,1.117,1.117,1.106,1.106,0,0,0,.623-.191,1.114,1.114,0,0,0,.492-.926v-10.2c.009-.288.476-.616,1.078-.616s1.076.334,1.076.625v18.032l-.13-.051-.96-2.343a2.332,2.332,0,0,0-2.179-1.486,2.33,2.33,0,0,0-2.179,1.486l-.963,2.343-2.279.9a2.325,2.325,0,0,0-1.482,2.179,2.329,2.329,0,0,0,1.482,2.179l2.344.96.9,2.278a2.314,2.314,0,0,0,1.063,1.2v7.989a1.118,1.118,0,0,0,1.117,1.117,1.115,1.115,0,0,0,1.114-1.117v-7.989a2.321,2.321,0,0,0,1.065-1.2l.963-2.34,2.278-.9a2.33,2.33,0,0,0,1.482-2.179A2.324,2.324,0,0,0-2537.142,1695.662Zm-16.331-23.084a2.343,2.343,0,0,0-1.209,1.083,1.524,1.524,0,0,0-.113.236l-.9,2.278c-.024.058-.184.058-.208,0l-.9-2.278c-.034-.085-.072-.164-.112-.243a2.333,2.333,0,0,0-1.206-1.076l-2.281-.9a.094.094,0,0,1-.068-.1.093.093,0,0,1,.068-.1l2.281-.9a2.338,2.338,0,0,0,1.319-1.318l.9-2.278a.1.1,0,0,1,.106-.072.093.093,0,0,1,.1.072l.9,2.278a2.308,2.308,0,0,0,.386.642,2.313,2.313,0,0,0,.936.677l.946.376,1.332.526a.1.1,0,0,1,.072.1.1.1,0,0,1-.072.1l-1.332.526-.283.113Zm11.832,27.552-.9,2.278c-.021.055-.185.055-.208,0l-.27-.687-.629-1.592a2.346,2.346,0,0,0-1.319-1.322l-2.278-.9a.093.093,0,0,1-.072-.1.1.1,0,0,1,.072-.106l2.278-.9a2.342,2.342,0,0,0,1.319-1.319l.9-2.282a.1.1,0,0,1,.105-.072.1.1,0,0,1,.1.072l.9,2.282a2.357,2.357,0,0,0,1.322,1.319l.56.222,1.718.677a.1.1,0,0,1,.072.106.1.1,0,0,1-.072.1l-2.278.9A2.371,2.371,0,0,0-2541.641,1700.129Z" transform="translate(3028.149 -1610.08)" fill="#fcfff0"/>
  </g>
</svg>
