<svg xmlns="http://www.w3.org/2000/svg" width="56" height="56" viewBox="0 0 56 56">
  <g id="グループ_254" data-name="グループ 254" transform="translate(-1457 -4774)">
    <rect id="長方形_130" data-name="長方形 130" width="56" height="56" transform="translate(1457 4774)" fill="none"/>
    <g id="グループ_249" data-name="グループ 249" transform="translate(1460.021 4780.309)">
      <path id="パス_77" data-name="パス 77" d="M24.957,231.385l-5.314,1.1c-.606-2.073-1.23-4.126-1.779-6.2a1.058,1.058,0,0,1,.417-.917c2.474-1.268,4.977-2.477,7.485-3.708,4.338,10.614,20.837,10.637,25.28.023l8.181,3.913-1.992,6.871-4.97-1c-.56,12.434-1.117,24.8-1.679,37.3H40.322c-.912-4.267-.136-8.778-1.888-12.961-1.791,4.156-.981,8.661-1.92,12.992H26.175c-.05-.415-.128-.843-.148-1.273-.325-6.938-.7-13.875-.939-20.816-.153-4.5-.1-9-.13-13.5C24.953,232.657,24.957,232.1,24.957,231.385Z" transform="translate(-12.81 -220.976)" fill="#a19595"/>
      <path id="パス_78" data-name="パス 78" d="M93.2,216.69a2.357,2.357,0,0,1,3.223.761,9.765,9.765,0,0,0,15.3.026,2.39,2.39,0,0,1,3.219-.812c-1.349,4.186-5.44,6.816-10.585,6.869C98.861,223.591,94.756,221.1,93.2,216.69Z" transform="translate(-78.461 -216.359)" fill="#a19595"/>
      <path id="パス_79" data-name="パス 79" d="M-16.68,267.55l-3.072.641-1.587-5.232,2.83-1.592Z" transform="translate(21.339 -255.576)" fill="#a19595"/>
      <path id="パス_80" data-name="パス 80" d="M342.657,261.3l2.841,1.582-1.589,5.266-3.047-.666Z" transform="translate(-294.266 -255.516)" fill="#a19595"/>
    </g>
  </g>
</svg>
