<svg xmlns="http://www.w3.org/2000/svg" width="19.108" height="19.108" viewBox="0 0 19.108 19.108">
  <g id="グループ_90" data-name="グループ 90" transform="translate(-4.079 -4.079)">
    <path id="パス_17" data-name="パス 17" d="M13.633,5.8c2.551,0,2.853.01,3.861.056a5.288,5.288,0,0,1,1.774.329A3.164,3.164,0,0,1,21.081,8a5.288,5.288,0,0,1,.329,1.774c.046,1.007.056,1.31.056,3.861s-.01,2.853-.056,3.861a5.288,5.288,0,0,1-.329,1.774,3.164,3.164,0,0,1-1.813,1.813,5.288,5.288,0,0,1-1.774.329c-1.007.046-1.309.056-3.861.056s-2.853-.01-3.861-.056A5.288,5.288,0,0,1,8,21.081a3.164,3.164,0,0,1-1.813-1.813,5.288,5.288,0,0,1-.329-1.774c-.046-1.007-.056-1.31-.056-3.861s.01-2.853.056-3.861A5.288,5.288,0,0,1,6.185,8,3.164,3.164,0,0,1,8,6.185a5.288,5.288,0,0,1,1.774-.329c1.007-.046,1.31-.056,3.861-.056m0-1.722c-2.595,0-2.92.011-3.939.057a7.013,7.013,0,0,0-2.319.444A4.886,4.886,0,0,0,4.581,7.375a7.013,7.013,0,0,0-.444,2.319c-.046,1.019-.057,1.344-.057,3.939s.011,2.92.057,3.939a7.013,7.013,0,0,0,.444,2.319,4.886,4.886,0,0,0,2.794,2.794,7.013,7.013,0,0,0,2.319.444c1.019.046,1.344.057,3.939.057s2.92-.011,3.939-.057a7.013,7.013,0,0,0,2.319-.444,4.886,4.886,0,0,0,2.794-2.794,7.013,7.013,0,0,0,.444-2.319c.046-1.019.057-1.344.057-3.939s-.011-2.92-.057-3.939a7.013,7.013,0,0,0-.444-2.319,4.886,4.886,0,0,0-2.794-2.794,7.013,7.013,0,0,0-2.319-.444c-1.019-.046-1.344-.057-3.939-.057Z" fill="#3b2121"/>
    <path id="パス_18" data-name="パス 18" d="M131.541,126.635a4.906,4.906,0,1,0,4.906,4.906A4.906,4.906,0,0,0,131.541,126.635Zm0,8.091a3.185,3.185,0,1,1,3.185-3.185A3.185,3.185,0,0,1,131.541,134.726Z" transform="translate(-117.908 -117.908)" fill="#3b2121"/>
    <circle id="楕円形_50" data-name="楕円形 50" cx="1.147" cy="1.147" r="1.147" transform="translate(17.587 7.387)" fill="#3b2121"/>
  </g>
</svg>
