<svg xmlns="http://www.w3.org/2000/svg" width="21.096" height="20.101" viewBox="0 0 21.096 20.101">
  <g id="FULL_COLOR_ICON" data-name="FULL COLOR ICON" transform="translate(-377.059 -256.905)">
    <g id="TYPE_A" data-name="TYPE A" transform="translate(377.059 256.905)">
      <g id="グループ_220" data-name="グループ 220">
        <path id="パス_55" data-name="パス 55" d="M398.155,265.465c0-4.72-4.732-8.56-10.548-8.56s-10.548,3.84-10.548,8.56c0,4.231,3.753,7.775,8.821,8.445.344.074.811.226.93.52a2.17,2.17,0,0,1,.034.954s-.124.744-.151.9c-.046.267-.212,1.043.914.569a34.064,34.064,0,0,0,8.288-6.124h0a7.616,7.616,0,0,0,2.261-5.267" transform="translate(-377.059 -256.905)" fill="#3b2121"/>
        <g id="グループ_219" data-name="グループ 219" transform="translate(3.46 6.279)">
          <path id="パス_56" data-name="パス 56" d="M408.9,282.914h-.74a.205.205,0,0,0-.206.2v4.6a.205.205,0,0,0,.206.2h.74a.205.205,0,0,0,.205-.2v-4.6a.205.205,0,0,0-.205-.2" transform="translate(-403.958 -282.914)" fill="#fff"/>
          <path id="パス_57" data-name="パス 57" d="M419.871,282.914h-.74a.205.205,0,0,0-.205.2v2.73l-2.106-2.844a.23.23,0,0,0-.016-.021h0l-.012-.013,0,0-.011-.009-.005,0-.011-.007-.006,0-.011-.006-.007,0-.012-.005-.007,0-.012,0-.007,0-.012,0h-.777a.205.205,0,0,0-.205.2v4.6a.205.205,0,0,0,.205.2h.74a.205.205,0,0,0,.205-.2v-2.73l2.109,2.848a.207.207,0,0,0,.052.051h0l.013.008.006,0,.01,0,.01,0,.006,0,.014,0h0a.21.21,0,0,0,.053.007h.74a.205.205,0,0,0,.205-.2v-4.6a.205.205,0,0,0-.205-.2" transform="translate(-409.834 -282.914)" fill="#fff"/>
          <path id="パス_58" data-name="パス 58" d="M394.553,286.769h-2.01v-3.65a.205.205,0,0,0-.205-.205h-.74a.205.205,0,0,0-.205.205v4.6h0a.2.2,0,0,0,.057.142l0,0,0,0a.2.2,0,0,0,.142.057h2.956a.205.205,0,0,0,.205-.205v-.74a.205.205,0,0,0-.205-.205" transform="translate(-391.392 -282.913)" fill="#fff"/>
          <path id="パス_59" data-name="パス 59" d="M439.958,284.065a.205.205,0,0,0,.2-.205v-.74a.205.205,0,0,0-.2-.205H437a.2.2,0,0,0-.143.058l0,0,0,0a.2.2,0,0,0-.057.141h0v4.6h0a.2.2,0,0,0,.057.142l0,0,0,0a.2.2,0,0,0,.142.057h2.956a.205.205,0,0,0,.2-.205v-.74a.205.205,0,0,0-.2-.205h-2.01v-.777h2.01a.205.205,0,0,0,.2-.205v-.74a.205.205,0,0,0-.2-.206h-2.01v-.777Z" transform="translate(-425.835 -282.914)" fill="#fff"/>
        </g>
      </g>
    </g>
  </g>
</svg>
